<svg xmlns="http://www.w3.org/2000/svg" width="1264" height="651"><g><path d="M-23,-41L11,-108L-100,58Z" fill="#fcf9fc" stroke="#fcf9fc" fill-opacity="1" stroke-opacity="1"/><path d="M-23,-41L-100,58L29,40Z" fill="#f9f8fc" stroke="#f9f8fc" fill-opacity="1" stroke-opacity="1"/><path d="M-23,-41L29,40L11,-108Z" fill="#f8f6fb" stroke="#f8f6fb" fill-opacity="1" stroke-opacity="1"/><path d="M11,-108L29,40L198,-106Z" fill="#f0f1f7" stroke="#f0f1f7" fill-opacity="1" stroke-opacity="1"/><path d="M11,-108L198,-106L925,-99Z" fill="#ccdcec" stroke="#ccdcec" fill-opacity="1" stroke-opacity="1"/><path d="M198,-106L29,40L225,23Z" fill="#e9ecf4" stroke="#e9ecf4" fill-opacity="1" stroke-opacity="1"/><path d="M198,-106L225,23L271,-50Z" fill="#e0e6f1" stroke="#e0e6f1" fill-opacity="1" stroke-opacity="1"/><path d="M198,-106L271,-50L442,-62Z" fill="#d7e1ee" stroke="#d7e1ee" fill-opacity="1" stroke-opacity="1"/><path d="M198,-106L442,-62L657,-94Z" fill="#c4d9ea" stroke="#c4d9ea" fill-opacity="1" stroke-opacity="1"/><path d="M198,-106L657,-94L925,-99Z" fill="#adcfe4" stroke="#adcfe4" fill-opacity="1" stroke-opacity="1"/><path d="M271,-50L225,23L281,99Z" fill="#dae2f0" stroke="#dae2f0" fill-opacity="1" stroke-opacity="1"/><path d="M271,-50L281,99L458,72Z" fill="#cedced" stroke="#cedced" fill-opacity="1" stroke-opacity="1"/><path d="M271,-50L458,72L442,-62Z" fill="#cadceb" stroke="#cadceb" fill-opacity="1" stroke-opacity="1"/><path d="M442,-62L458,72L536,-66Z" fill="#bed6e8" stroke="#bed6e8" fill-opacity="1" stroke-opacity="1"/><path d="M442,-62L536,-66L657,-94Z" fill="#b4d2e6" stroke="#b4d2e6" fill-opacity="1" stroke-opacity="1"/><path d="M536,-66L458,72L569,73Z" fill="#b5d2e7" stroke="#b5d2e7" fill-opacity="1" stroke-opacity="1"/><path d="M536,-66L569,73L657,-94Z" fill="#aed0e5" stroke="#aed0e5" fill-opacity="1" stroke-opacity="1"/><path d="M657,-94L569,73L687,109Z" fill="#a3cbe3" stroke="#a3cbe3" fill-opacity="1" stroke-opacity="1"/><path d="M657,-94L687,109L805,-21Z" fill="#9bc8e0" stroke="#9bc8e0" fill-opacity="1" stroke-opacity="1"/><path d="M657,-94L805,-21L925,-99Z" fill="#92c2db" stroke="#92c2db" fill-opacity="1" stroke-opacity="1"/><path d="M805,-21L687,109L824,96Z" fill="#8dc1dd" stroke="#8dc1dd" fill-opacity="1" stroke-opacity="1"/><path d="M805,-21L824,96L859,89Z" fill="#89bcd8" stroke="#89bcd8" fill-opacity="1" stroke-opacity="1"/><path d="M805,-21L859,89L925,-99Z" fill="#8dbbd5" stroke="#8dbbd5" fill-opacity="1" stroke-opacity="1"/><path d="M925,-99L859,89L1003,94Z" fill="#85b3ce" stroke="#85b3ce" fill-opacity="1" stroke-opacity="1"/><path d="M925,-99L1003,94L1043,-10Z" fill="#83afc8" stroke="#83afc8" fill-opacity="1" stroke-opacity="1"/><path d="M925,-99L1043,-10L1183,-18Z" fill="#80a9c2" stroke="#80a9c2" fill-opacity="1" stroke-opacity="1"/><path d="M925,-99L1183,-18L1284,-65Z" fill="#80a1bb" stroke="#80a1bb" fill-opacity="1" stroke-opacity="1"/><path d="M925,-99L1284,-65L1369,-57Z" fill="#809bb5" stroke="#809bb5" fill-opacity="1" stroke-opacity="1"/><path d="M1043,-10L1003,94L1103,31Z" fill="#7ba7c3" stroke="#7ba7c3" fill-opacity="1" stroke-opacity="1"/><path d="M1043,-10L1103,31L1183,-18Z" fill="#80a3bd" stroke="#80a3bd" fill-opacity="1" stroke-opacity="1"/><path d="M1183,-18L1103,31L1214,183Z" fill="#7899b7" stroke="#7899b7" fill-opacity="1" stroke-opacity="1"/><path d="M1183,-18L1214,183L1309,39Z" fill="#7893b1" stroke="#7893b1" fill-opacity="1" stroke-opacity="1"/><path d="M1183,-18L1309,39L1284,-65Z" fill="#8094ae" stroke="#8094ae" fill-opacity="1" stroke-opacity="1"/><path d="M1284,-65L1309,39L1369,-57Z" fill="#808ea8" stroke="#808ea8" fill-opacity="1" stroke-opacity="1"/><path d="M1369,-57L1309,39L1427,54Z" fill="#7e89a4" stroke="#7e89a4" fill-opacity="1" stroke-opacity="1"/><path d="M-100,58L-82,674L-90,319Z" fill="#a7d7f4" stroke="#a7d7f4" fill-opacity="1" stroke-opacity="1"/><path d="M-100,58L-90,319L-87,142Z" fill="#e2f0fd" stroke="#e2f0fd" fill-opacity="1" stroke-opacity="1"/><path d="M-100,58L-87,142L29,40Z" fill="#f5f6fd" stroke="#f5f6fd" fill-opacity="1" stroke-opacity="1"/><path d="M29,40L-87,142L83,184Z" fill="#e9effa" stroke="#e9effa" fill-opacity="1" stroke-opacity="1"/><path d="M29,40L83,184L208,146Z" fill="#dfe8f6" stroke="#dfe8f6" fill-opacity="1" stroke-opacity="1"/><path d="M29,40L208,146L225,23Z" fill="#e0e7f4" stroke="#e0e7f4" fill-opacity="1" stroke-opacity="1"/><path d="M225,23L208,146L281,99Z" fill="#d5e0f1" stroke="#d5e0f1" fill-opacity="1" stroke-opacity="1"/><path d="M281,99L208,146L315,220Z" fill="#c5d8ef" stroke="#c5d8ef" fill-opacity="1" stroke-opacity="1"/><path d="M281,99L315,220L441,206Z" fill="#b3d0eb" stroke="#b3d0eb" fill-opacity="1" stroke-opacity="1"/><path d="M281,99L441,206L458,72Z" fill="#bbd4eb" stroke="#bbd4eb" fill-opacity="1" stroke-opacity="1"/><path d="M458,72L441,206L499,174Z" fill="#a9cce8" stroke="#a9cce8" fill-opacity="1" stroke-opacity="1"/><path d="M458,72L499,174L569,73Z" fill="#adcee7" stroke="#adcee7" fill-opacity="1" stroke-opacity="1"/><path d="M569,73L499,174L615,196Z" fill="#9dc7e5" stroke="#9dc7e5" fill-opacity="1" stroke-opacity="1"/><path d="M569,73L615,196L687,109Z" fill="#9ac6e3" stroke="#9ac6e3" fill-opacity="1" stroke-opacity="1"/><path d="M687,109L615,196L746,186Z" fill="#86bee0" stroke="#86bee0" fill-opacity="1" stroke-opacity="1"/><path d="M687,109L746,186L824,96Z" fill="#87bfdf" stroke="#87bfdf" fill-opacity="1" stroke-opacity="1"/><path d="M824,96L746,186L920,216Z" fill="#75b2d7" stroke="#75b2d7" fill-opacity="1" stroke-opacity="1"/><path d="M824,96L920,216L859,89Z" fill="#7db3d4" stroke="#7db3d4" fill-opacity="1" stroke-opacity="1"/><path d="M859,89L920,216L1003,94Z" fill="#78adce" stroke="#78adce" fill-opacity="1" stroke-opacity="1"/><path d="M1003,94L920,216L993,224Z" fill="#66a2c9" stroke="#66a2c9" fill-opacity="1" stroke-opacity="1"/><path d="M1003,94L993,224L1129,191Z" fill="#649cc2" stroke="#649cc2" fill-opacity="1" stroke-opacity="1"/><path d="M1003,94L1129,191L1103,31Z" fill="#74a0c0" stroke="#74a0c0" fill-opacity="1" stroke-opacity="1"/><path d="M1103,31L1129,191L1214,183Z" fill="#6f97b9" stroke="#6f97b9" fill-opacity="1" stroke-opacity="1"/><path d="M1309,39L1214,183L1394,135Z" fill="#7289aa" stroke="#7289aa" fill-opacity="1" stroke-opacity="1"/><path d="M1309,39L1394,135L1427,54Z" fill="#7784a3" stroke="#7784a3" fill-opacity="1" stroke-opacity="1"/><path d="M1427,54L1394,135L1425,620Z" fill="#42699b" stroke="#42699b" fill-opacity="1" stroke-opacity="1"/><path d="M1427,54L1425,620L1428,791Z" fill="#14417a" stroke="#14417a" fill-opacity="1" stroke-opacity="1"/><path d="M-87,142L-90,319L83,184Z" fill="#d0e5fa" stroke="#d0e5fa" fill-opacity="1" stroke-opacity="1"/><path d="M83,184L-90,319L108,286Z" fill="#b9d9f5" stroke="#b9d9f5" fill-opacity="1" stroke-opacity="1"/><path d="M83,184L108,286L208,146Z" fill="#c3daf3" stroke="#c3daf3" fill-opacity="1" stroke-opacity="1"/><path d="M208,146L108,286L227,322Z" fill="#aed0f0" stroke="#aed0f0" fill-opacity="1" stroke-opacity="1"/><path d="M208,146L227,322L315,220Z" fill="#afceed" stroke="#afceed" fill-opacity="1" stroke-opacity="1"/><path d="M315,220L227,322L302,335Z" fill="#95c3e9" stroke="#95c3e9" fill-opacity="1" stroke-opacity="1"/><path d="M315,220L302,335L402,262Z" fill="#93c2e8" stroke="#93c2e8" fill-opacity="1" stroke-opacity="1"/><path d="M315,220L402,262L441,206Z" fill="#9bc5e9" stroke="#9bc5e9" fill-opacity="1" stroke-opacity="1"/><path d="M441,206L402,262L538,285Z" fill="#89bee5" stroke="#89bee5" fill-opacity="1" stroke-opacity="1"/><path d="M441,206L538,285L499,174Z" fill="#8ec0e5" stroke="#8ec0e5" fill-opacity="1" stroke-opacity="1"/><path d="M499,174L538,285L615,196Z" fill="#87bde3" stroke="#87bde3" fill-opacity="1" stroke-opacity="1"/><path d="M615,196L538,285L706,287Z" fill="#70b3df" stroke="#70b3df" fill-opacity="1" stroke-opacity="1"/><path d="M615,196L706,287L746,186Z" fill="#71b4de" stroke="#71b4de" fill-opacity="1" stroke-opacity="1"/><path d="M746,186L706,287L771,272Z" fill="#61aedc" stroke="#61aedc" fill-opacity="1" stroke-opacity="1"/><path d="M746,186L771,272L920,216Z" fill="#63abd7" stroke="#63abd7" fill-opacity="1" stroke-opacity="1"/><path d="M920,216L771,272L896,332Z" fill="#4e9fd0" stroke="#4e9fd0" fill-opacity="1" stroke-opacity="1"/><path d="M920,216L896,332L993,224Z" fill="#4e9aca" stroke="#4e9aca" fill-opacity="1" stroke-opacity="1"/><path d="M993,224L896,332L1061,335Z" fill="#3d90c2" stroke="#3d90c2" fill-opacity="1" stroke-opacity="1"/><path d="M993,224L1061,335L1127,260Z" fill="#418bbc" stroke="#418bbc" fill-opacity="1" stroke-opacity="1"/><path d="M993,224L1127,260L1129,191Z" fill="#5190bc" stroke="#5190bc" fill-opacity="1" stroke-opacity="1"/><path d="M1129,191L1127,260L1214,183Z" fill="#568bb6" stroke="#568bb6" fill-opacity="1" stroke-opacity="1"/><path d="M1214,183L1127,260L1266,342Z" fill="#457fb0" stroke="#457fb0" fill-opacity="1" stroke-opacity="1"/><path d="M1214,183L1266,342L1350,256Z" fill="#4577a9" stroke="#4577a9" fill-opacity="1" stroke-opacity="1"/><path d="M1214,183L1350,256L1394,135Z" fill="#5c7ea6" stroke="#5c7ea6" fill-opacity="1" stroke-opacity="1"/><path d="M1394,135L1350,256L1425,620Z" fill="#2c6298" stroke="#2c6298" fill-opacity="1" stroke-opacity="1"/><path d="M-90,319L-82,674L-73,556Z" fill="#92b4d4" stroke="#92b4d4" fill-opacity="1" stroke-opacity="1"/><path d="M-90,319L-73,556L-37,397Z" fill="#97c8e8" stroke="#97c8e8" fill-opacity="1" stroke-opacity="1"/><path d="M-90,319L-37,397L62,373Z" fill="#9dd0f0" stroke="#9dd0f0" fill-opacity="1" stroke-opacity="1"/><path d="M-90,319L62,373L108,286Z" fill="#a5d1f1" stroke="#a5d1f1" fill-opacity="1" stroke-opacity="1"/><path d="M108,286L62,373L190,431Z" fill="#8fc5ea" stroke="#8fc5ea" fill-opacity="1" stroke-opacity="1"/><path d="M108,286L190,431L227,322Z" fill="#8fc4e9" stroke="#8fc4e9" fill-opacity="1" stroke-opacity="1"/><path d="M227,322L190,431L272,397Z" fill="#7dbbe4" stroke="#7dbbe4" fill-opacity="1" stroke-opacity="1"/><path d="M227,322L272,397L302,335Z" fill="#83bce5" stroke="#83bce5" fill-opacity="1" stroke-opacity="1"/><path d="M302,335L272,397L448,373Z" fill="#73b6e1" stroke="#73b6e1" fill-opacity="1" stroke-opacity="1"/><path d="M302,335L448,373L402,262Z" fill="#7cb9e3" stroke="#7cb9e3" fill-opacity="1" stroke-opacity="1"/><path d="M402,262L448,373L538,285Z" fill="#76b6e1" stroke="#76b6e1" fill-opacity="1" stroke-opacity="1"/><path d="M538,285L448,373L582,436Z" fill="#5aabdb" stroke="#5aabdb" fill-opacity="1" stroke-opacity="1"/><path d="M538,285L582,436L706,287Z" fill="#57a9da" stroke="#57a9da" fill-opacity="1" stroke-opacity="1"/><path d="M706,287L582,436L682,452Z" fill="#3ea0d4" stroke="#3ea0d4" fill-opacity="1" stroke-opacity="1"/><path d="M706,287L682,452L732,438Z" fill="#379cd2" stroke="#379cd2" fill-opacity="1" stroke-opacity="1"/><path d="M706,287L732,438L771,272Z" fill="#46a3d6" stroke="#46a3d6" fill-opacity="1" stroke-opacity="1"/><path d="M771,272L732,438L896,332Z" fill="#3b9bd0" stroke="#3b9bd0" fill-opacity="1" stroke-opacity="1"/><path d="M896,332L732,438L931,406Z" fill="#2890c7" stroke="#2890c7" fill-opacity="1" stroke-opacity="1"/><path d="M896,332L931,406L1061,335Z" fill="#2a8abf" stroke="#2a8abf" fill-opacity="1" stroke-opacity="1"/><path d="M1061,335L931,406L1004,438Z" fill="#1d81b9" stroke="#1d81b9" fill-opacity="1" stroke-opacity="1"/><path d="M1061,335L1004,438L1135,469Z" fill="#1876ad" stroke="#1876ad" fill-opacity="1" stroke-opacity="1"/><path d="M1061,335L1135,469L1236,375Z" fill="#1a73ab" stroke="#1a73ab" fill-opacity="1" stroke-opacity="1"/><path d="M1061,335L1236,375L1127,260Z" fill="#307db1" stroke="#307db1" fill-opacity="1" stroke-opacity="1"/><path d="M1127,260L1236,375L1266,342Z" fill="#2f76aa" stroke="#2f76aa" fill-opacity="1" stroke-opacity="1"/><path d="M1266,342L1236,375L1332,412Z" fill="#1f689f" stroke="#1f689f" fill-opacity="1" stroke-opacity="1"/><path d="M1266,342L1332,412L1350,256Z" fill="#2c6a9f" stroke="#2c6a9f" fill-opacity="1" stroke-opacity="1"/><path d="M1350,256L1332,412L1425,620Z" fill="#17548d" stroke="#17548d" fill-opacity="1" stroke-opacity="1"/><path d="M-37,397L-73,556L106,570Z" fill="#8bb0d2" stroke="#8bb0d2" fill-opacity="1" stroke-opacity="1"/><path d="M-37,397L106,570L62,373Z" fill="#8abbde" stroke="#8abbde" fill-opacity="1" stroke-opacity="1"/><path d="M62,373L106,570L173,501Z" fill="#81add4" stroke="#81add4" fill-opacity="1" stroke-opacity="1"/><path d="M62,373L173,501L190,431Z" fill="#81b6dd" stroke="#81b6dd" fill-opacity="1" stroke-opacity="1"/><path d="M190,431L173,501L272,397Z" fill="#79afd8" stroke="#79afd8" fill-opacity="1" stroke-opacity="1"/><path d="M272,397L173,501L259,577Z" fill="#74a2cc" stroke="#74a2cc" fill-opacity="1" stroke-opacity="1"/><path d="M272,397L259,577L424,535Z" fill="#689ac6" stroke="#689ac6" fill-opacity="1" stroke-opacity="1"/><path d="M272,397L424,535L448,373Z" fill="#63a6d4" stroke="#63a6d4" fill-opacity="1" stroke-opacity="1"/><path d="M448,373L424,535L549,496Z" fill="#5398c9" stroke="#5398c9" fill-opacity="1" stroke-opacity="1"/><path d="M448,373L549,496L582,436Z" fill="#4e9dcf" stroke="#4e9dcf" fill-opacity="1" stroke-opacity="1"/><path d="M582,436L549,496L682,452Z" fill="#4192c6" stroke="#4192c6" fill-opacity="1" stroke-opacity="1"/><path d="M682,452L549,496L707,564Z" fill="#3886bb" stroke="#3886bb" fill-opacity="1" stroke-opacity="1"/><path d="M682,452L707,564L732,438Z" fill="#3187bd" stroke="#3187bd" fill-opacity="1" stroke-opacity="1"/><path d="M732,438L707,564L817,532Z" fill="#297eb5" stroke="#297eb5" fill-opacity="1" stroke-opacity="1"/><path d="M732,438L817,532L883,519Z" fill="#257cb4" stroke="#257cb4" fill-opacity="1" stroke-opacity="1"/><path d="M732,438L883,519L931,406Z" fill="#2482ba" stroke="#2482ba" fill-opacity="1" stroke-opacity="1"/><path d="M931,406L883,519L983,514Z" fill="#1c74ac" stroke="#1c74ac" fill-opacity="1" stroke-opacity="1"/><path d="M931,406L983,514L1004,438Z" fill="#1b76ae" stroke="#1b76ae" fill-opacity="1" stroke-opacity="1"/><path d="M1004,438L983,514L1112,509Z" fill="#1469a0" stroke="#1469a0" fill-opacity="1" stroke-opacity="1"/><path d="M1004,438L1112,509L1135,469Z" fill="#15679f" stroke="#15679f" fill-opacity="1" stroke-opacity="1"/><path d="M1135,469L1112,509L1240,554Z" fill="#12568f" stroke="#12568f" fill-opacity="1" stroke-opacity="1"/><path d="M1135,469L1240,554L1236,375Z" fill="#155c95" stroke="#155c95" fill-opacity="1" stroke-opacity="1"/><path d="M1236,375L1240,554L1332,412Z" fill="#165a92" stroke="#165a92" fill-opacity="1" stroke-opacity="1"/><path d="M1332,412L1240,554L1338,519Z" fill="#134c84" stroke="#134c84" fill-opacity="1" stroke-opacity="1"/><path d="M1332,412L1338,519L1425,620Z" fill="#124179" stroke="#124179" fill-opacity="1" stroke-opacity="1"/><path d="M-73,556L-82,674L21,632Z" fill="#8999bb" stroke="#8999bb" fill-opacity="1" stroke-opacity="1"/><path d="M-73,556L21,632L106,570Z" fill="#849cc0" stroke="#849cc0" fill-opacity="1" stroke-opacity="1"/><path d="M106,570L21,632L131,685Z" fill="#7b8db3" stroke="#7b8db3" fill-opacity="1" stroke-opacity="1"/><path d="M106,570L131,685L259,577Z" fill="#748cb4" stroke="#748cb4" fill-opacity="1" stroke-opacity="1"/><path d="M106,570L259,577L173,501Z" fill="#7699c1" stroke="#7699c1" fill-opacity="1" stroke-opacity="1"/><path d="M259,577L131,685L222,737Z" fill="#6c7ca6" stroke="#6c7ca6" fill-opacity="1" stroke-opacity="1"/><path d="M259,577L222,737L336,700Z" fill="#6477a2" stroke="#6477a2" fill-opacity="1" stroke-opacity="1"/><path d="M259,577L336,700L424,535Z" fill="#5f82af" stroke="#5f82af" fill-opacity="1" stroke-opacity="1"/><path d="M424,535L336,700L458,632Z" fill="#5479a8" stroke="#5479a8" fill-opacity="1" stroke-opacity="1"/><path d="M424,535L458,632L549,496Z" fill="#4e85b5" stroke="#4e85b5" fill-opacity="1" stroke-opacity="1"/><path d="M549,496L458,632L512,674Z" fill="#4778aa" stroke="#4778aa" fill-opacity="1" stroke-opacity="1"/><path d="M549,496L512,674L707,564Z" fill="#3c78ac" stroke="#3c78ac" fill-opacity="1" stroke-opacity="1"/><path d="M707,564L512,674L693,696Z" fill="#31669b" stroke="#31669b" fill-opacity="1" stroke-opacity="1"/><path d="M707,564L693,696L740,656Z" fill="#27639a" stroke="#27639a" fill-opacity="1" stroke-opacity="1"/><path d="M707,564L740,656L817,532Z" fill="#246da5" stroke="#246da5" fill-opacity="1" stroke-opacity="1"/><path d="M817,532L740,656L902,692Z" fill="#1c5d95" stroke="#1c5d95" fill-opacity="1" stroke-opacity="1"/><path d="M817,532L902,692L883,519Z" fill="#1b639b" stroke="#1b639b" fill-opacity="1" stroke-opacity="1"/><path d="M883,519L902,692L983,514Z" fill="#175f97" stroke="#175f97" fill-opacity="1" stroke-opacity="1"/><path d="M983,514L902,692L1049,620Z" fill="#11528a" stroke="#11528a" fill-opacity="1" stroke-opacity="1"/><path d="M983,514L1049,620L1112,509Z" fill="#105991" stroke="#105991" fill-opacity="1" stroke-opacity="1"/><path d="M1112,509L1049,620L1144,630Z" fill="#0e4b83" stroke="#0e4b83" fill-opacity="1" stroke-opacity="1"/><path d="M1112,509L1144,630L1240,554Z" fill="#0f4a82" stroke="#0f4a82" fill-opacity="1" stroke-opacity="1"/><path d="M1240,554L1144,630L1247,611Z" fill="#0d3d76" stroke="#0d3d76" fill-opacity="1" stroke-opacity="1"/><path d="M1240,554L1247,611L1338,519Z" fill="#0f3f78" stroke="#0f3f78" fill-opacity="1" stroke-opacity="1"/><path d="M1338,519L1247,611L1425,620Z" fill="#0e346d" stroke="#0e346d" fill-opacity="1" stroke-opacity="1"/><path d="M-82,674L-36,768L21,632Z" fill="#8388aa" stroke="#8388aa" fill-opacity="1" stroke-opacity="1"/><path d="M21,632L-36,768L72,788Z" fill="#7b7b9f" stroke="#7b7b9f" fill-opacity="1" stroke-opacity="1"/><path d="M21,632L72,788L131,685Z" fill="#787ea3" stroke="#787ea3" fill-opacity="1" stroke-opacity="1"/><path d="M131,685L72,788L222,737Z" fill="#6e7198" stroke="#6e7198" fill-opacity="1" stroke-opacity="1"/><path d="M336,700L222,737L316,749Z" fill="#5e6894" stroke="#5e6894" fill-opacity="1" stroke-opacity="1"/><path d="M336,700L316,749L458,820Z" fill="#515d8b" stroke="#515d8b" fill-opacity="1" stroke-opacity="1"/><path d="M336,700L458,820L512,674Z" fill="#495e8f" stroke="#495e8f" fill-opacity="1" stroke-opacity="1"/><path d="M336,700L512,674L458,632Z" fill="#4d6d9d" stroke="#4d6d9d" fill-opacity="1" stroke-opacity="1"/><path d="M512,674L458,820L524,815Z" fill="#3d5584" stroke="#3d5584" fill-opacity="1" stroke-opacity="1"/><path d="M512,674L524,815L661,766Z" fill="#355285" stroke="#355285" fill-opacity="1" stroke-opacity="1"/><path d="M512,674L661,766L693,696Z" fill="#2f588c" stroke="#2f588c" fill-opacity="1" stroke-opacity="1"/><path d="M693,696L661,766L768,743Z" fill="#224d84" stroke="#224d84" fill-opacity="1" stroke-opacity="1"/><path d="M693,696L768,743L740,656Z" fill="#20548c" stroke="#20548c" fill-opacity="1" stroke-opacity="1"/><path d="M740,656L768,743L902,692Z" fill="#194f87" stroke="#194f87" fill-opacity="1" stroke-opacity="1"/><path d="M902,692L768,743L852,784Z" fill="#13417a" stroke="#13417a" fill-opacity="1" stroke-opacity="1"/><path d="M902,692L852,784L987,737Z" fill="#0e3a73" stroke="#0e3a73" fill-opacity="1" stroke-opacity="1"/><path d="M902,692L987,737L1049,620Z" fill="#0c4079" stroke="#0c4079" fill-opacity="1" stroke-opacity="1"/><path d="M1049,620L987,737L1117,806Z" fill="#053169" stroke="#053169" fill-opacity="1" stroke-opacity="1"/><path d="M1049,620L1117,806L1144,630Z" fill="#08346c" stroke="#08346c" fill-opacity="1" stroke-opacity="1"/><path d="M1144,630L1117,806L1245,795Z" fill="#042059" stroke="#042059" fill-opacity="1" stroke-opacity="1"/><path d="M1144,630L1245,795L1247,611Z" fill="#082a63" stroke="#082a63" fill-opacity="1" stroke-opacity="1"/><path d="M1247,611L1245,795L1425,620Z" fill="#08225b" stroke="#08225b" fill-opacity="1" stroke-opacity="1"/><path d="M1425,620L1245,795L1428,791Z" fill="#050e48" stroke="#050e48" fill-opacity="1" stroke-opacity="1"/><path d="M72,788L458,820L316,749Z" fill="#5c6388" stroke="#5c6388" fill-opacity="1" stroke-opacity="1"/><path d="M72,788L316,749L222,737Z" fill="#676891" stroke="#676891" fill-opacity="1" stroke-opacity="1"/><path d="M458,820L1117,806L524,815Z" fill="#1e4a73" stroke="#1e4a73" fill-opacity="1" stroke-opacity="1"/><path d="M524,815L1117,806L852,784Z" fill="#103f6d" stroke="#103f6d" fill-opacity="1" stroke-opacity="1"/><path d="M524,815L852,784L661,766Z" fill="#224b79" stroke="#224b79" fill-opacity="1" stroke-opacity="1"/><path d="M661,766L852,784L768,743Z" fill="#18467c" stroke="#18467c" fill-opacity="1" stroke-opacity="1"/><path d="M852,784L1117,806L987,737Z" fill="#063064" stroke="#063064" fill-opacity="1" stroke-opacity="1"/><path d="M1117,806L1428,791L1245,795Z" fill="#011444" stroke="#011444" fill-opacity="1" stroke-opacity="1"/></g></svg>
